<?xml version="1.0" standalone="no"?>
<!DOCTYPE svg PUBLIC "-//W3C//DTD SVG 20010904//EN"
 "http://www.w3.org/TR/2001/REC-SVG-20010904/DTD/svg10.dtd">
<svg version="1.0" xmlns="http://www.w3.org/2000/svg"
 width="1200.000000pt" height="1200.000000pt" viewBox="0 0 1200.000000 1200.000000"
 preserveAspectRatio="xMidYMid meet">
<metadata>
Created by potrace 1.14, written by Peter Selinger 2001-2017
</metadata>
<g transform="translate(0.000000,1200.000000) scale(0.100000,-0.100000)"
fill="#000000" stroke="none">
<path d="M1305 11989 c-199 -23 -322 -94 -385 -223 -103 -209 -30 -464 159
-560 119 -61 105 -60 846 -66 l680 -5 5 -1625 c5 -1505 6 -1629 22 -1683 55
-181 166 -283 336 -309 195 -31 378 68 446 238 57 142 56 99 56 1812 l0 1572
1708 0 c1697 0 1961 -4 2198 -35 654 -85 1169 -333 1607 -771 354 -354 544
-700 618 -1124 19 -107 17 -411 -4 -530 -38 -221 -109 -431 -214 -630 -267
-507 -664 -859 -1219 -1081 -326 -130 -715 -229 -1064 -269 -52 -6 -135 -19
-185 -29 -49 -11 -125 -24 -167 -30 -162 -22 -280 -97 -338 -215 -107 -217
-28 -473 175 -567 82 -39 230 -65 410 -73 1085 -50 1754 -215 2342 -580 591
-366 1016 -951 1149 -1581 26 -119 28 -148 28 -355 0 -245 -10 -330 -63 -536
-74 -281 -216 -572 -404 -823 -89 -120 -332 -364 -457 -461 -467 -360 -930
-535 -1530 -580 -84 -6 -970 -10 -2362 -10 l-2228 0 0 2465 0 2465 595 0 595
0 0 -639 c0 -702 2 -736 59 -857 140 -298 604 -294 738 6 58 130 57 90 60
1272 l4 1088 -2481 2 -2481 3 4 -1090 c3 -955 5 -1098 19 -1155 37 -151 105
-248 212 -300 216 -107 473 -28 567 174 57 121 59 155 59 857 l0 639 595 0
595 0 -2 -2462 -3 -2463 -675 -5 c-666 -6 -676 -6 -750 -29 -96 -29 -144 -57
-203 -120 -144 -154 -139 -415 11 -569 51 -52 122 -91 217 -119 57 -17 232
-18 3415 -21 2389 -2 3402 0 3518 8 474 32 882 139 1302 342 587 282 1119 724
1429 1187 333 497 502 1032 518 1646 14 520 -76 930 -300 1368 -188 369 -440
683 -772 963 -341 287 -832 561 -1378 769 l-138 52 73 43 c461 272 851 612
1115 970 261 354 427 767 483 1200 6 47 14 164 17 260 23 698 -203 1343 -665
1900 -354 426 -802 764 -1289 971 -433 183 -874 280 -1418 309 -228 12 -5704
12 -5810 -1z"/>
</g>
</svg>
